<mxfile host="app.diagrams.net" modified="2023-06-22T15:57:55.820Z" agent="Mozilla/5.0 (Windows NT 10.0; Win64; x64) AppleWebKit/537.36 (KHTML, like Gecko) Chrome/114.0.0.0 Safari/537.36" etag="UYAJeINhBFsvXpE9sehC" version="21.5.0" type="github">
  <diagram name="PÃ¡gina-1" id="jl9narghsGvmQzATfqyB">
    <mxGraphModel dx="1434" dy="796" grid="1" gridSize="10" guides="1" tooltips="1" connect="1" arrows="1" fold="1" page="1" pageScale="1" pageWidth="827" pageHeight="1169" math="0" shadow="0">
      <root>
        <mxCell id="0" />
        <mxCell id="1" parent="0" />
        <mxCell id="GilbHM1YJxlTG6mLyMr7-2" value="Registrar Usuario" style="ellipse;whiteSpace=wrap;html=1;" parent="1" vertex="1">
          <mxGeometry x="330" y="140" width="110" height="40" as="geometry" />
        </mxCell>
        <mxCell id="GilbHM1YJxlTG6mLyMr7-3" value="Registrar Perfil" style="ellipse;whiteSpace=wrap;html=1;" parent="1" vertex="1">
          <mxGeometry x="330" y="90" width="110" height="40" as="geometry" />
        </mxCell>
        <mxCell id="GilbHM1YJxlTG6mLyMr7-4" value="Registrar Producto" style="ellipse;whiteSpace=wrap;html=1;" parent="1" vertex="1">
          <mxGeometry x="330" y="240" width="110" height="40" as="geometry" />
        </mxCell>
        <mxCell id="GilbHM1YJxlTG6mLyMr7-5" value="Actualizar Datos" style="ellipse;whiteSpace=wrap;html=1;" parent="1" vertex="1">
          <mxGeometry x="330" y="290" width="110" height="40" as="geometry" />
        </mxCell>
        <mxCell id="GilbHM1YJxlTG6mLyMr7-6" value="Registrar Proveedior" style="ellipse;whiteSpace=wrap;html=1;" parent="1" vertex="1">
          <mxGeometry x="330" y="340" width="110" height="40" as="geometry" />
        </mxCell>
        <mxCell id="GilbHM1YJxlTG6mLyMr7-8" value="Registrar Cliente" style="ellipse;whiteSpace=wrap;html=1;" parent="1" vertex="1">
          <mxGeometry x="330" y="390" width="110" height="40" as="geometry" />
        </mxCell>
        <mxCell id="GilbHM1YJxlTG6mLyMr7-10" value="Crear Cotizacion" style="ellipse;whiteSpace=wrap;html=1;" parent="1" vertex="1">
          <mxGeometry x="330" y="440" width="110" height="40" as="geometry" />
        </mxCell>
        <mxCell id="GilbHM1YJxlTG6mLyMr7-13" value="Guardar Cotizacion" style="ellipse;whiteSpace=wrap;html=1;" parent="1" vertex="1">
          <mxGeometry x="330" y="490" width="110" height="40" as="geometry" />
        </mxCell>
        <mxCell id="GilbHM1YJxlTG6mLyMr7-14" value="Descargar Formatos" style="ellipse;whiteSpace=wrap;html=1;" parent="1" vertex="1">
          <mxGeometry x="330" y="545" width="110" height="40" as="geometry" />
        </mxCell>
        <mxCell id="GilbHM1YJxlTG6mLyMr7-15" value="Buscar Cotizacion estatus/folio" style="ellipse;whiteSpace=wrap;html=1;" parent="1" vertex="1">
          <mxGeometry x="330" y="600" width="110" height="40" as="geometry" />
        </mxCell>
        <mxCell id="GilbHM1YJxlTG6mLyMr7-17" value="Eliminar Partida de Cotizacion" style="ellipse;whiteSpace=wrap;html=1;" parent="1" vertex="1">
          <mxGeometry x="330" y="650" width="110" height="40" as="geometry" />
        </mxCell>
        <mxCell id="GilbHM1YJxlTG6mLyMr7-18" value="Confirmar Venta" style="ellipse;whiteSpace=wrap;html=1;" parent="1" vertex="1">
          <mxGeometry x="330" y="700" width="110" height="40" as="geometry" />
        </mxCell>
        <mxCell id="UZ2L8NYuwcKhNS8lTPTT-1" style="rounded=0;orthogonalLoop=1;jettySize=auto;html=1;exitX=0.5;exitY=0.5;exitDx=0;exitDy=0;exitPerimeter=0;entryX=0;entryY=0.5;entryDx=0;entryDy=0;" parent="1" source="GilbHM1YJxlTG6mLyMr7-22" target="GilbHM1YJxlTG6mLyMr7-2" edge="1">
          <mxGeometry relative="1" as="geometry" />
        </mxCell>
        <mxCell id="UZ2L8NYuwcKhNS8lTPTT-2" style="rounded=0;orthogonalLoop=1;jettySize=auto;html=1;exitX=0.5;exitY=0.5;exitDx=0;exitDy=0;exitPerimeter=0;entryX=0;entryY=0.5;entryDx=0;entryDy=0;" parent="1" source="GilbHM1YJxlTG6mLyMr7-22" target="GilbHM1YJxlTG6mLyMr7-3" edge="1">
          <mxGeometry relative="1" as="geometry" />
        </mxCell>
        <mxCell id="UZ2L8NYuwcKhNS8lTPTT-3" style="rounded=0;orthogonalLoop=1;jettySize=auto;html=1;exitX=0.5;exitY=0.5;exitDx=0;exitDy=0;exitPerimeter=0;entryX=0;entryY=0.5;entryDx=0;entryDy=0;" parent="1" source="GilbHM1YJxlTG6mLyMr7-22" target="GilbHM1YJxlTG6mLyMr7-4" edge="1">
          <mxGeometry relative="1" as="geometry" />
        </mxCell>
        <mxCell id="UZ2L8NYuwcKhNS8lTPTT-4" style="rounded=0;orthogonalLoop=1;jettySize=auto;html=1;exitX=0.5;exitY=0.5;exitDx=0;exitDy=0;exitPerimeter=0;entryX=0;entryY=0.5;entryDx=0;entryDy=0;" parent="1" source="GilbHM1YJxlTG6mLyMr7-22" target="GilbHM1YJxlTG6mLyMr7-5" edge="1">
          <mxGeometry relative="1" as="geometry" />
        </mxCell>
        <mxCell id="UZ2L8NYuwcKhNS8lTPTT-5" style="rounded=0;orthogonalLoop=1;jettySize=auto;html=1;exitX=0.5;exitY=0.5;exitDx=0;exitDy=0;exitPerimeter=0;entryX=0;entryY=0.5;entryDx=0;entryDy=0;" parent="1" source="GilbHM1YJxlTG6mLyMr7-22" target="GilbHM1YJxlTG6mLyMr7-6" edge="1">
          <mxGeometry relative="1" as="geometry" />
        </mxCell>
        <mxCell id="UZ2L8NYuwcKhNS8lTPTT-7" style="rounded=0;orthogonalLoop=1;jettySize=auto;html=1;exitX=0.5;exitY=0.5;exitDx=0;exitDy=0;exitPerimeter=0;entryX=0;entryY=0.5;entryDx=0;entryDy=0;" parent="1" source="GilbHM1YJxlTG6mLyMr7-22" target="GilbHM1YJxlTG6mLyMr7-8" edge="1">
          <mxGeometry relative="1" as="geometry" />
        </mxCell>
        <mxCell id="UZ2L8NYuwcKhNS8lTPTT-9" style="rounded=0;orthogonalLoop=1;jettySize=auto;html=1;exitX=0.5;exitY=0.5;exitDx=0;exitDy=0;exitPerimeter=0;entryX=0;entryY=0.5;entryDx=0;entryDy=0;" parent="1" source="GilbHM1YJxlTG6mLyMr7-22" target="GilbHM1YJxlTG6mLyMr7-10" edge="1">
          <mxGeometry relative="1" as="geometry">
            <mxPoint x="280" y="510" as="targetPoint" />
          </mxGeometry>
        </mxCell>
        <mxCell id="UZ2L8NYuwcKhNS8lTPTT-12" style="rounded=0;orthogonalLoop=1;jettySize=auto;html=1;exitX=0.5;exitY=0.5;exitDx=0;exitDy=0;exitPerimeter=0;entryX=0;entryY=0.5;entryDx=0;entryDy=0;" parent="1" source="GilbHM1YJxlTG6mLyMr7-22" target="GilbHM1YJxlTG6mLyMr7-13" edge="1">
          <mxGeometry relative="1" as="geometry" />
        </mxCell>
        <mxCell id="UZ2L8NYuwcKhNS8lTPTT-13" style="rounded=0;orthogonalLoop=1;jettySize=auto;html=1;exitX=0.5;exitY=0.5;exitDx=0;exitDy=0;exitPerimeter=0;entryX=0;entryY=0.5;entryDx=0;entryDy=0;" parent="1" source="GilbHM1YJxlTG6mLyMr7-22" target="GilbHM1YJxlTG6mLyMr7-14" edge="1">
          <mxGeometry relative="1" as="geometry" />
        </mxCell>
        <mxCell id="UZ2L8NYuwcKhNS8lTPTT-14" style="rounded=0;orthogonalLoop=1;jettySize=auto;html=1;exitX=0.5;exitY=0.5;exitDx=0;exitDy=0;exitPerimeter=0;entryX=0;entryY=0.5;entryDx=0;entryDy=0;" parent="1" source="GilbHM1YJxlTG6mLyMr7-22" target="GilbHM1YJxlTG6mLyMr7-15" edge="1">
          <mxGeometry relative="1" as="geometry" />
        </mxCell>
        <mxCell id="UZ2L8NYuwcKhNS8lTPTT-16" style="rounded=0;orthogonalLoop=1;jettySize=auto;html=1;exitX=0.5;exitY=0.5;exitDx=0;exitDy=0;exitPerimeter=0;entryX=0;entryY=0.5;entryDx=0;entryDy=0;" parent="1" source="GilbHM1YJxlTG6mLyMr7-22" target="GilbHM1YJxlTG6mLyMr7-17" edge="1">
          <mxGeometry relative="1" as="geometry" />
        </mxCell>
        <mxCell id="UZ2L8NYuwcKhNS8lTPTT-17" style="rounded=0;orthogonalLoop=1;jettySize=auto;html=1;exitX=0.5;exitY=0.5;exitDx=0;exitDy=0;exitPerimeter=0;entryX=0;entryY=0.5;entryDx=0;entryDy=0;" parent="1" source="GilbHM1YJxlTG6mLyMr7-22" target="GilbHM1YJxlTG6mLyMr7-18" edge="1">
          <mxGeometry relative="1" as="geometry" />
        </mxCell>
        <mxCell id="r8s3EJOqrWiQY2tsD6TI-6" style="rounded=0;orthogonalLoop=1;jettySize=auto;html=1;exitX=0.5;exitY=0.5;exitDx=0;exitDy=0;exitPerimeter=0;entryX=0;entryY=0.5;entryDx=0;entryDy=0;" parent="1" source="GilbHM1YJxlTG6mLyMr7-22" target="r8s3EJOqrWiQY2tsD6TI-4" edge="1">
          <mxGeometry relative="1" as="geometry" />
        </mxCell>
        <mxCell id="GilbHM1YJxlTG6mLyMr7-22" value="Super Admin" style="shape=umlActor;verticalLabelPosition=bottom;verticalAlign=top;html=1;outlineConnect=0;" parent="1" vertex="1">
          <mxGeometry x="150" y="480" width="50" height="80" as="geometry" />
        </mxCell>
        <mxCell id="UZ2L8NYuwcKhNS8lTPTT-18" style="rounded=0;orthogonalLoop=1;jettySize=auto;html=1;exitX=0.5;exitY=0.5;exitDx=0;exitDy=0;exitPerimeter=0;entryX=0;entryY=0.5;entryDx=0;entryDy=0;fillColor=#f8cecc;strokeColor=#b85450;strokeWidth=2;" parent="1" source="GilbHM1YJxlTG6mLyMr7-25" target="GilbHM1YJxlTG6mLyMr7-4" edge="1">
          <mxGeometry relative="1" as="geometry" />
        </mxCell>
        <mxCell id="UZ2L8NYuwcKhNS8lTPTT-19" style="rounded=0;orthogonalLoop=1;jettySize=auto;html=1;exitX=0.5;exitY=0.5;exitDx=0;exitDy=0;exitPerimeter=0;fillColor=#f8cecc;strokeColor=#b85450;strokeWidth=2;" parent="1" source="GilbHM1YJxlTG6mLyMr7-25" edge="1">
          <mxGeometry relative="1" as="geometry">
            <mxPoint x="330" y="360" as="targetPoint" />
          </mxGeometry>
        </mxCell>
        <mxCell id="UZ2L8NYuwcKhNS8lTPTT-20" style="rounded=0;orthogonalLoop=1;jettySize=auto;html=1;exitX=0.5;exitY=0.5;exitDx=0;exitDy=0;exitPerimeter=0;entryX=0;entryY=0.5;entryDx=0;entryDy=0;fillColor=#f8cecc;strokeColor=#b85450;strokeWidth=2;" parent="1" source="GilbHM1YJxlTG6mLyMr7-25" target="GilbHM1YJxlTG6mLyMr7-8" edge="1">
          <mxGeometry relative="1" as="geometry" />
        </mxCell>
        <mxCell id="UZ2L8NYuwcKhNS8lTPTT-58" style="rounded=0;orthogonalLoop=1;jettySize=auto;html=1;exitX=0.5;exitY=0.5;exitDx=0;exitDy=0;exitPerimeter=0;entryX=0;entryY=0.5;entryDx=0;entryDy=0;fillColor=#f8cecc;strokeColor=#b85450;strokeWidth=2;" parent="1" source="GilbHM1YJxlTG6mLyMr7-25" target="GilbHM1YJxlTG6mLyMr7-5" edge="1">
          <mxGeometry relative="1" as="geometry" />
        </mxCell>
        <mxCell id="r8s3EJOqrWiQY2tsD6TI-5" style="rounded=0;orthogonalLoop=1;jettySize=auto;html=1;exitX=0.5;exitY=0.5;exitDx=0;exitDy=0;exitPerimeter=0;entryX=0;entryY=0.5;entryDx=0;entryDy=0;fillColor=#f8cecc;strokeColor=#b85450;strokeWidth=2;" parent="1" source="GilbHM1YJxlTG6mLyMr7-25" target="r8s3EJOqrWiQY2tsD6TI-4" edge="1">
          <mxGeometry relative="1" as="geometry" />
        </mxCell>
        <mxCell id="GilbHM1YJxlTG6mLyMr7-25" value="Capturistas" style="shape=umlActor;verticalLabelPosition=bottom;verticalAlign=top;html=1;outlineConnect=0;" parent="1" vertex="1">
          <mxGeometry x="150" y="280" width="50" height="80" as="geometry" />
        </mxCell>
        <mxCell id="UZ2L8NYuwcKhNS8lTPTT-53" style="rounded=0;orthogonalLoop=1;jettySize=auto;html=1;exitX=0.5;exitY=0.5;exitDx=0;exitDy=0;exitPerimeter=0;entryX=1;entryY=0.5;entryDx=0;entryDy=0;fillColor=#d5e8d4;strokeColor=#82b366;strokeWidth=2;" parent="1" source="GilbHM1YJxlTG6mLyMr7-26" target="GilbHM1YJxlTG6mLyMr7-10" edge="1">
          <mxGeometry relative="1" as="geometry" />
        </mxCell>
        <mxCell id="UZ2L8NYuwcKhNS8lTPTT-56" style="rounded=0;orthogonalLoop=1;jettySize=auto;html=1;exitX=0.5;exitY=0.5;exitDx=0;exitDy=0;exitPerimeter=0;entryX=1;entryY=0.5;entryDx=0;entryDy=0;fillColor=#d5e8d4;strokeColor=#82b366;strokeWidth=2;" parent="1" source="GilbHM1YJxlTG6mLyMr7-26" target="GilbHM1YJxlTG6mLyMr7-13" edge="1">
          <mxGeometry relative="1" as="geometry" />
        </mxCell>
        <mxCell id="UZ2L8NYuwcKhNS8lTPTT-57" style="rounded=0;orthogonalLoop=1;jettySize=auto;html=1;exitX=0.5;exitY=0.5;exitDx=0;exitDy=0;exitPerimeter=0;entryX=1;entryY=0.5;entryDx=0;entryDy=0;fillColor=#d5e8d4;strokeColor=#82b366;strokeWidth=2;" parent="1" source="GilbHM1YJxlTG6mLyMr7-26" target="GilbHM1YJxlTG6mLyMr7-14" edge="1">
          <mxGeometry relative="1" as="geometry" />
        </mxCell>
        <mxCell id="UZ2L8NYuwcKhNS8lTPTT-61" style="rounded=0;orthogonalLoop=1;jettySize=auto;html=1;exitX=0.5;exitY=0.5;exitDx=0;exitDy=0;exitPerimeter=0;entryX=1;entryY=0.5;entryDx=0;entryDy=0;fillColor=#d5e8d4;strokeColor=#82b366;strokeWidth=2;" parent="1" source="GilbHM1YJxlTG6mLyMr7-26" target="GilbHM1YJxlTG6mLyMr7-15" edge="1">
          <mxGeometry relative="1" as="geometry" />
        </mxCell>
        <mxCell id="UZ2L8NYuwcKhNS8lTPTT-63" style="rounded=0;orthogonalLoop=1;jettySize=auto;html=1;exitX=0.5;exitY=0.5;exitDx=0;exitDy=0;exitPerimeter=0;entryX=1;entryY=0.5;entryDx=0;entryDy=0;fillColor=#d5e8d4;strokeColor=#82b366;strokeWidth=2;" parent="1" source="GilbHM1YJxlTG6mLyMr7-26" target="GilbHM1YJxlTG6mLyMr7-17" edge="1">
          <mxGeometry relative="1" as="geometry" />
        </mxCell>
        <mxCell id="UZ2L8NYuwcKhNS8lTPTT-64" style="rounded=0;orthogonalLoop=1;jettySize=auto;html=1;exitX=0.5;exitY=0.5;exitDx=0;exitDy=0;exitPerimeter=0;entryX=1;entryY=0.5;entryDx=0;entryDy=0;fillColor=#d5e8d4;strokeColor=#82b366;strokeWidth=2;" parent="1" source="GilbHM1YJxlTG6mLyMr7-26" target="GilbHM1YJxlTG6mLyMr7-18" edge="1">
          <mxGeometry relative="1" as="geometry" />
        </mxCell>
        <mxCell id="r8s3EJOqrWiQY2tsD6TI-8" style="rounded=0;orthogonalLoop=1;jettySize=auto;html=1;exitX=0.5;exitY=0.5;exitDx=0;exitDy=0;exitPerimeter=0;entryX=1;entryY=0.5;entryDx=0;entryDy=0;fillColor=#d5e8d4;strokeColor=#82b366;strokeWidth=2;" parent="1" source="GilbHM1YJxlTG6mLyMr7-26" target="r8s3EJOqrWiQY2tsD6TI-4" edge="1">
          <mxGeometry relative="1" as="geometry" />
        </mxCell>
        <mxCell id="GilbHM1YJxlTG6mLyMr7-26" value="Ventas" style="shape=umlActor;verticalLabelPosition=bottom;verticalAlign=top;html=1;outlineConnect=0;" parent="1" vertex="1">
          <mxGeometry x="590" y="520" width="55" height="80" as="geometry" />
        </mxCell>
        <mxCell id="UZ2L8NYuwcKhNS8lTPTT-38" style="rounded=0;orthogonalLoop=1;jettySize=auto;html=1;exitX=0.5;exitY=0.5;exitDx=0;exitDy=0;exitPerimeter=0;entryX=1;entryY=0.5;entryDx=0;entryDy=0;fillColor=#dae8fc;strokeColor=#6c8ebf;strokeWidth=2;" parent="1" source="UZ2L8NYuwcKhNS8lTPTT-37" target="GilbHM1YJxlTG6mLyMr7-4" edge="1">
          <mxGeometry relative="1" as="geometry" />
        </mxCell>
        <mxCell id="UZ2L8NYuwcKhNS8lTPTT-39" style="rounded=0;orthogonalLoop=1;jettySize=auto;html=1;exitX=0.5;exitY=0.5;exitDx=0;exitDy=0;exitPerimeter=0;entryX=1;entryY=0.5;entryDx=0;entryDy=0;fillColor=#dae8fc;strokeColor=#6c8ebf;strokeWidth=2;" parent="1" source="UZ2L8NYuwcKhNS8lTPTT-37" target="GilbHM1YJxlTG6mLyMr7-5" edge="1">
          <mxGeometry relative="1" as="geometry" />
        </mxCell>
        <mxCell id="UZ2L8NYuwcKhNS8lTPTT-40" style="rounded=0;orthogonalLoop=1;jettySize=auto;html=1;exitX=0.5;exitY=0.5;exitDx=0;exitDy=0;exitPerimeter=0;entryX=1;entryY=0.5;entryDx=0;entryDy=0;fillColor=#dae8fc;strokeColor=#6c8ebf;strokeWidth=2;" parent="1" source="UZ2L8NYuwcKhNS8lTPTT-37" target="GilbHM1YJxlTG6mLyMr7-6" edge="1">
          <mxGeometry relative="1" as="geometry" />
        </mxCell>
        <mxCell id="UZ2L8NYuwcKhNS8lTPTT-42" style="rounded=0;orthogonalLoop=1;jettySize=auto;html=1;exitX=0.5;exitY=0.5;exitDx=0;exitDy=0;exitPerimeter=0;entryX=1;entryY=0.5;entryDx=0;entryDy=0;fillColor=#dae8fc;strokeColor=#6c8ebf;strokeWidth=2;" parent="1" source="UZ2L8NYuwcKhNS8lTPTT-37" target="GilbHM1YJxlTG6mLyMr7-8" edge="1">
          <mxGeometry relative="1" as="geometry" />
        </mxCell>
        <mxCell id="UZ2L8NYuwcKhNS8lTPTT-44" style="rounded=0;orthogonalLoop=1;jettySize=auto;html=1;exitX=0.5;exitY=0.5;exitDx=0;exitDy=0;exitPerimeter=0;entryX=1;entryY=0.5;entryDx=0;entryDy=0;fillColor=#dae8fc;strokeColor=#6c8ebf;strokeWidth=2;" parent="1" source="UZ2L8NYuwcKhNS8lTPTT-37" target="GilbHM1YJxlTG6mLyMr7-10" edge="1">
          <mxGeometry relative="1" as="geometry" />
        </mxCell>
        <mxCell id="UZ2L8NYuwcKhNS8lTPTT-47" style="rounded=0;orthogonalLoop=1;jettySize=auto;html=1;exitX=0.5;exitY=0.5;exitDx=0;exitDy=0;exitPerimeter=0;entryX=1;entryY=0.5;entryDx=0;entryDy=0;fillColor=#dae8fc;strokeColor=#6c8ebf;strokeWidth=2;" parent="1" source="UZ2L8NYuwcKhNS8lTPTT-37" target="GilbHM1YJxlTG6mLyMr7-13" edge="1">
          <mxGeometry relative="1" as="geometry" />
        </mxCell>
        <mxCell id="UZ2L8NYuwcKhNS8lTPTT-48" style="rounded=0;orthogonalLoop=1;jettySize=auto;html=1;exitX=0.5;exitY=0.5;exitDx=0;exitDy=0;exitPerimeter=0;entryX=1;entryY=0.5;entryDx=0;entryDy=0;fillColor=#dae8fc;strokeColor=#6c8ebf;strokeWidth=2;" parent="1" source="UZ2L8NYuwcKhNS8lTPTT-37" target="GilbHM1YJxlTG6mLyMr7-14" edge="1">
          <mxGeometry relative="1" as="geometry" />
        </mxCell>
        <mxCell id="UZ2L8NYuwcKhNS8lTPTT-49" style="rounded=0;orthogonalLoop=1;jettySize=auto;html=1;exitX=0.5;exitY=0.5;exitDx=0;exitDy=0;exitPerimeter=0;entryX=1;entryY=0.5;entryDx=0;entryDy=0;fillColor=#dae8fc;strokeColor=#6c8ebf;strokeWidth=2;" parent="1" source="UZ2L8NYuwcKhNS8lTPTT-37" target="GilbHM1YJxlTG6mLyMr7-15" edge="1">
          <mxGeometry relative="1" as="geometry" />
        </mxCell>
        <mxCell id="UZ2L8NYuwcKhNS8lTPTT-51" style="rounded=0;orthogonalLoop=1;jettySize=auto;html=1;exitX=0.5;exitY=0.5;exitDx=0;exitDy=0;exitPerimeter=0;entryX=1;entryY=0.5;entryDx=0;entryDy=0;fillColor=#dae8fc;strokeColor=#6c8ebf;strokeWidth=2;" parent="1" source="UZ2L8NYuwcKhNS8lTPTT-37" target="GilbHM1YJxlTG6mLyMr7-17" edge="1">
          <mxGeometry relative="1" as="geometry" />
        </mxCell>
        <mxCell id="UZ2L8NYuwcKhNS8lTPTT-52" style="rounded=0;orthogonalLoop=1;jettySize=auto;html=1;exitX=0.5;exitY=0.5;exitDx=0;exitDy=0;exitPerimeter=0;entryX=1;entryY=0.5;entryDx=0;entryDy=0;fillColor=#dae8fc;strokeColor=#6c8ebf;strokeWidth=2;" parent="1" source="UZ2L8NYuwcKhNS8lTPTT-37" target="GilbHM1YJxlTG6mLyMr7-18" edge="1">
          <mxGeometry relative="1" as="geometry" />
        </mxCell>
        <mxCell id="r8s3EJOqrWiQY2tsD6TI-7" style="rounded=0;orthogonalLoop=1;jettySize=auto;html=1;exitX=0.5;exitY=0.5;exitDx=0;exitDy=0;exitPerimeter=0;entryX=1;entryY=0.5;entryDx=0;entryDy=0;fillColor=#dae8fc;strokeColor=#6c8ebf;strokeWidth=2;" parent="1" source="UZ2L8NYuwcKhNS8lTPTT-37" target="r8s3EJOqrWiQY2tsD6TI-4" edge="1">
          <mxGeometry relative="1" as="geometry" />
        </mxCell>
        <mxCell id="UZ2L8NYuwcKhNS8lTPTT-37" value="Admin" style="shape=umlActor;verticalLabelPosition=bottom;verticalAlign=top;html=1;outlineConnect=0;" parent="1" vertex="1">
          <mxGeometry x="590" y="300" width="50" height="80" as="geometry" />
        </mxCell>
        <mxCell id="r8s3EJOqrWiQY2tsD6TI-4" value="Iniciar Sesion" style="ellipse;whiteSpace=wrap;html=1;" parent="1" vertex="1">
          <mxGeometry x="330" y="190" width="110" height="40" as="geometry" />
        </mxCell>
      </root>
    </mxGraphModel>
  </diagram>
</mxfile>
